HIERARCHY
ROOT Hips
{
 OFFSET 0.000000 0.000000 0.000000
 CHANNELS 6 Xposition Yposition Zposition Yrotation Xrotation Zrotation
 JOINT Chest
 {
  OFFSET 0.000000 11.395451 -0.039534
  CHANNELS 3 Yrotation Xrotation Zrotation
  JOINT Chest2
  {
   OFFSET 0.000000 9.398669 0.071813
   CHANNELS 3 Yrotation Xrotation Zrotation
   JOINT Chest3
   {
    OFFSET 0.000000 8.489801 0.000000
    CHANNELS 3 Yrotation Xrotation Zrotation
    JOINT Chest4
    {
     OFFSET 0.000000 8.489801 0.000000
     CHANNELS 3 Yrotation Xrotation Zrotation
     JOINT Neck
     {
      OFFSET 0.000000 12.404889 0.000000
      CHANNELS 3 Yrotation Xrotation Zrotation
      JOINT Head
      {
       OFFSET 0.000000 8.903270 0.092239
       CHANNELS 3 Yrotation Xrotation Zrotation
       End Site
       {
        OFFSET 0.000000 17.592497 0.007158
       }
      }
     }
     JOINT RightCollar
     {
      OFFSET -3.196775 6.966722 0.000000
      CHANNELS 3 Yrotation Xrotation Zrotation
      JOINT RightShoulder
      {
       OFFSET -15.955896 0.000000 0.000000
       CHANNELS 3 Yrotation Xrotation Zrotation
       JOINT RightElbow
       {
        OFFSET -24.792472 0.000000 0.000000
        CHANNELS 3 Yrotation Xrotation Zrotation
        JOINT RightWrist
        {
         OFFSET -20.900115 0.000000 0.025002
         CHANNELS 3 Yrotation Xrotation Zrotation
         End Site
         {
          OFFSET -16.056692 0.000000 0.000000
         }
        }
       }
      }
     }
     JOINT LeftCollar
     {
      OFFSET 3.196775 6.966722 0.000000
      CHANNELS 3 Yrotation Xrotation Zrotation
      JOINT LeftShoulder
      {
       OFFSET 15.955896 0.000000 0.000000
       CHANNELS 3 Yrotation Xrotation Zrotation
       JOINT LeftElbow
       {
        OFFSET 24.792472 0.000000 0.000000
        CHANNELS 3 Yrotation Xrotation Zrotation
        JOINT LeftWrist
        {
         OFFSET 20.900115 0.000000 0.025002
         CHANNELS 3 Yrotation Xrotation Zrotation
         End Site
         {
          OFFSET 16.056692 0.000000 0.000000
         }
        }
       }
      }
     }
    }
   }
  }
 }
 JOINT RightHip
 {
  OFFSET -9.568995 0.193718 0.019767
  CHANNELS 3 Yrotation Xrotation Zrotation
  JOINT RightKnee
  {
   OFFSET 0.000000 -56.649296 0.015402
   CHANNELS 3 Yrotation Xrotation Zrotation
   JOINT RightAnkle
   {
    OFFSET 0.000000 -41.365147 0.021264
    CHANNELS 3 Yrotation Xrotation Zrotation
    JOINT RightToe
    {
     OFFSET 0.000000 -7.465940 17.672538
     CHANNELS 3 Yrotation Xrotation Zrotation
     End Site
     {
      OFFSET 0.000000 -1.736315 7.837145
     }
    }
   }
  }
 }
 JOINT LeftHip
 {
  OFFSET 9.568995 0.193718 0.019767
  CHANNELS 3 Yrotation Xrotation Zrotation
  JOINT LeftKnee
  {
   OFFSET 0.000000 -56.649296 0.015402
   CHANNELS 3 Yrotation Xrotation Zrotation
   JOINT LeftAnkle
   {
    OFFSET 0.000000 -41.365147 0.021264
    CHANNELS 3 Yrotation Xrotation Zrotation
    JOINT LeftToe
    {
     OFFSET 0.000000 -7.465940 17.672538
     CHANNELS 3 Yrotation Xrotation Zrotation
     End Site
     {
      OFFSET 0.000000 -1.736315 7.837145
     }
    }
   }
  }
 }
}
MOTION
Frames: 15
Frame Time: 0.016667
-25.381177 106.565255 271.536775 -71.236684 -6.847463 -0.292564 -2.247679 5.536334 -0.725993 -0.989096 2.464081 -0.295429 -0.989096 2.464081 -0.295429 -0.740516 1.848545 -0.217548 2.577835 15.480588 -0.894403 5.146273 -7.352370 -2.627049 0.761734 3.938221 11.097763 6.126708 -6.716573 73.299709 0.262409 -3.829791 -0.182260 -3.117503 2.909989 0.585906 -1.097260 3.548570 -8.079025 2.562432 -11.345911 -73.139826 -4.593727 1.945811 -2.805212 4.165602 1.793646 -1.959477 4.034876 11.501964 -0.618649 -1.064790 1.587376 -0.555551 -6.733942 -8.290136 0.599448 0.000000 0.000000 0.000000 0.399428 10.030052 0.604712 -1.241767 4.949790 0.163828 -2.181793 -8.399404 -0.091943 0.000000 0.000000 0.000000
-25.321844 106.562572 271.511329 -71.284136 -6.858513 -0.293371 -2.268378 5.495132 -0.706242 -0.998603 2.445706 -0.286622 -0.998604 2.445706 -0.286621 -0.747693 1.834755 -0.210936 2.605248 15.542467 -0.916524 5.202926 -7.235091 -2.675350 0.694871 4.002968 11.041507 6.125706 -6.612063 73.387583 0.193510 -3.832314 -0.245469 -3.091865 2.921305 0.541275 -1.107744 3.607967 -8.098111 2.426720 -11.352899 -73.168848 -4.711176 1.821581 -2.809180 4.137197 1.758177 -1.904473 4.039877 11.473969 -0.632759 -1.141836 1.530076 -0.571609 -6.635858 -8.177003 0.677189 0.000000 0.000000 0.000000 0.427929 10.004673 0.628586 -1.270591 4.955312 0.141533 -2.130887 -8.384031 -0.113931 -0.000000 -0.000000 -0.000000
-25.262512 106.559888 271.485883 -71.331589 -6.869564 -0.294169 -2.289095 5.453955 -0.686447 -1.008113 2.427338 -0.277798 -1.008114 2.427339 -0.277798 -0.754869 1.820969 -0.204312 2.632613 15.604352 -0.938663 5.259422 -7.117768 -2.723583 0.627960 4.067497 10.984956 6.124789 -6.507331 73.475182 0.124770 -3.835096 -0.308834 -3.066134 2.932526 0.496682 -1.118285 3.667319 -8.117321 2.291038 -11.360119 -73.197906 -4.828708 1.697440 -2.812221 4.108845 1.722964 -1.849262 4.044888 11.445963 -0.646846 -1.218866 1.472757 -0.587597 -6.537741 -8.063864 0.755047 0.000000 0.000000 0.000000 0.456414 9.979299 0.652472 -1.299408 4.960805 0.119215 -2.079982 -8.368652 -0.135891 -0.000000 0.000000 -0.000000
-25.203605 106.558330 271.462340 -71.376086 -6.888192 -0.296210 -2.308755 5.418809 -0.667093 -1.017133 2.411650 -0.269155 -1.017133 2.411650 -0.269155 -0.761675 1.809192 -0.197821 2.651376 15.663413 -0.963837 5.301052 -7.005909 -2.774388 0.563427 4.129117 10.923850 6.130403 -6.417875 73.553599 0.120004 -3.839865 -0.352602 -3.035597 2.935048 0.451885 -1.125978 3.726566 -8.140567 2.153406 -11.380685 -73.217601 -4.938804 1.588144 -2.809529 4.081930 1.693114 -1.793131 4.054826 11.421050 -0.655739 -1.297273 1.440841 -0.600889 -6.446941 -7.971378 0.821025 0.000000 0.000000 0.000000 0.474203 9.960383 0.669817 -1.317937 4.971367 0.102534 -2.030877 -8.355230 -0.156443 0.000000 0.000000 0.000000
-25.144781 106.558550 271.442204 -71.419396 -6.917146 -0.300403 -2.327120 5.392064 -0.647059 -1.025569 2.399690 -0.260184 -1.025569 2.399690 -0.260185 -0.768042 1.800210 -0.191082 2.656971 15.719394 -0.996467 5.320947 -6.899981 -2.834366 0.504237 4.186260 10.852925 6.140631 -6.349315 73.619671 0.208640 -3.849047 -0.367911 -2.999065 2.926695 0.408327 -1.126533 3.787140 -8.172429 2.009087 -11.424548 -73.220725 -5.034978 1.503476 -2.797683 4.059059 1.674569 -1.735870 4.065893 11.399841 -0.658746 -1.374511 1.447136 -0.608651 -6.361773 -7.909544 0.867806 0.000000 0.000000 0.000000 0.475821 9.951351 0.676110 -1.319522 4.987263 0.095567 -1.983142 -8.344106 -0.175297 0.000000 0.000000 0.000000
-25.086382 106.559895 271.423972 -71.459750 -6.953680 -0.305824 -2.344431 5.371347 -0.627502 -1.033519 2.390408 -0.251408 -1.033519 2.390408 -0.251408 -0.774043 1.793237 -0.184485 2.653963 15.772502 -1.032193 5.326018 -6.799628 -2.897077 0.447446 4.240490 10.777533 6.157339 -6.296156 73.676753 0.361071 -3.859899 -0.363225 -2.957710 2.909892 0.364562 -1.124233 3.847609 -8.208279 1.862763 -11.481558 -73.214247 -5.123620 1.433676 -2.780473 4.037692 1.661365 -1.677788 4.081873 11.381735 -0.656565 -1.453142 1.478847 -0.613918 -6.283941 -7.868357 0.902597 0.000000 0.000000 0.000000 0.466760 9.948775 0.675847 -1.310828 5.008256 0.094249 -1.937208 -8.334942 -0.192755 0.000000 0.000000 0.000000
-25.029866 106.561526 271.405032 -71.488888 -6.997129 -0.310978 -2.360333 5.355530 -0.612333 -1.040782 2.383322 -0.244572 -1.040782 2.383322 -0.244572 -0.779520 1.787914 -0.179343 2.647520 15.820607 -1.060856 5.322288 -6.709110 -2.945611 0.386629 4.293858 10.709343 6.192616 -6.257300 73.725836 0.552515 -3.866232 -0.344692 -2.910363 2.883038 0.316000 -1.129017 3.903620 -8.238217 1.726610 -11.534658 -73.210082 -5.216531 1.364195 -2.763940 4.011456 1.640761 -1.618900 4.119051 11.368014 -0.646112 -1.542226 1.522974 -0.622914 -6.225879 -7.838461 0.935151 0.000000 0.000000 0.000000 0.452791 9.948835 0.675992 -1.301560 5.038701 0.092012 -1.896165 -8.328685 -0.208333 0.000000 0.000000 0.000000
-24.975726 106.563063 271.383132 -71.499622 -7.048276 -0.315945 -2.376029 5.346449 -0.604095 -1.047861 2.379264 -0.240782 -1.047861 2.379264 -0.240782 -0.784845 1.784867 -0.176480 2.637686 15.860787 -1.077723 5.308284 -6.634116 -2.971348 0.317387 4.346520 10.655417 6.252986 -6.235109 73.764684 0.782222 -3.865609 -0.311450 -2.852801 2.840728 0.257528 -1.148494 3.953695 -8.255453 1.606300 -11.581339 -73.213360 -5.319671 1.292062 -2.747153 3.974994 1.603795 -1.556155 4.193696 11.357981 -0.621021 -1.655363 1.580933 -0.640956 -6.196100 -7.820410 0.969513 0.000000 0.000000 0.000000 0.431682 9.948559 0.679794 -1.294950 5.084900 0.086005 -1.860562 -8.327379 -0.221692 -0.000000 0.000000 -0.000000
-24.923469 106.564886 271.360524 -71.499135 -7.106334 -0.320673 -2.390300 5.342247 -0.600269 -1.054248 2.377396 -0.238940 -1.054248 2.377396 -0.238940 -0.789643 1.783466 -0.175077 2.624451 15.895999 -1.087493 5.285587 -6.568906 -2.982898 0.244134 4.398441 10.608718 6.331879 -6.227348 73.795661 1.050937 -3.860757 -0.264467 -2.789233 2.788679 0.193924 -1.175018 3.999335 -8.266777 1.496176 -11.624111 -73.219050 -5.427116 1.220275 -2.731071 3.933575 1.559485 -1.492456 4.289521 11.352267 -0.587595 -1.778971 1.651284 -0.662773 -6.186096 -7.813652 1.001625 0.000000 0.000000 0.000000 0.405659 9.950923 0.683979 -1.287771 5.140551 0.079078 -1.829850 -8.328980 -0.233187 0.000000 0.000000 0.000000
-24.873068 106.567297 271.341365 -71.500734 -7.168282 -0.323459 -2.399154 5.336259 -0.597152 -1.058226 2.374730 -0.237486 -1.058226 2.374730 -0.237486 -0.792632 1.781465 -0.173976 2.612901 15.932958 -1.094122 5.264806 -6.500543 -2.989130 0.173664 4.451389 10.559745 6.421749 -6.226036 73.826659 1.336175 -3.853145 -0.212794 -2.731216 2.741819 0.135539 -1.195635 4.040652 -8.282642 1.391469 -11.653495 -73.224038 -5.532922 1.143162 -2.724468 3.896705 1.522008 -1.436800 4.373996 11.354213 -0.561763 -1.881309 1.716760 -0.678586 -6.182766 -7.807175 1.029102 0.000000 0.000000 0.000000 0.387189 9.961029 0.685744 -1.280036 5.191101 0.073216 -1.805477 -8.328301 -0.243369 -0.000000 -0.000000 -0.000000
-24.825364 106.570718 271.328147 -71.510219 -7.234814 -0.322483 -2.401073 5.326038 -0.594242 -1.059129 2.370174 -0.236227 -1.059129 2.370174 -0.236227 -0.793317 1.778047 -0.173036 2.605432 15.975447 -1.098214 5.250453 -6.421853 -2.991846 0.107521 4.508013 10.503257 6.524722 -6.230383 73.861596 1.633079 -3.842067 -0.160620 -2.684029 2.707136 0.086955 -1.204739 4.077289 -8.307953 1.283672 -11.664606 -73.222790 -5.633618 1.048494 -2.733474 3.868044 1.497223 -1.393814 4.436462 11.366874 -0.551212 -1.949106 1.772720 -0.683401 -6.183625 -7.798070 1.051527 0.000000 0.000000 -0.000000 0.382238 9.982695 0.682632 -1.267859 5.232311 0.069735 -1.791566 -8.323102 -0.253314 -0.000000 -0.000000 -0.000000
-24.779518 106.574727 271.318376 -71.521800 -7.305236 -0.319550 -2.397572 5.314030 -0.592022 -1.057621 2.364821 -0.235345 -1.057621 2.364821 -0.235345 -0.792192 1.774030 -0.172390 2.599649 16.019693 -1.099139 5.238021 -6.339993 -2.989201 0.044186 4.565683 10.444502 6.638632 -6.241273 73.896597 1.946595 -3.828384 -0.104034 -2.642509 2.677556 0.043618 -1.207899 4.109617 -8.337734 1.181324 -11.662269 -73.221061 -5.732712 0.948370 -2.752006 3.843870 1.479138 -1.359055 4.487613 11.387257 -0.548258 -1.995612 1.823841 -0.682085 -6.191163 -7.789249 1.069317 0.000000 -0.000000 0.000000 0.384853 10.012099 0.677127 -1.255117 5.268422 0.067343 -1.783993 -8.315623 -0.261943 0.000000 0.000000 0.000000
-24.732982 106.578370 271.308734 -71.531388 -7.374449 -0.318381 -2.389219 5.300908 -0.588265 -1.053978 2.358960 -0.233842 -1.053978 2.358960 -0.233842 -0.789469 1.769630 -0.171287 2.593447 16.061071 -1.099002 5.224564 -6.263533 -2.984586 -0.014141 4.618239 10.389738 6.749509 -6.253182 73.927850 2.268930 -3.815791 -0.039934 -2.602559 2.646755 0.002311 -1.208941 4.138820 -8.367602 1.105238 -11.651621 -73.232671 -5.834711 0.873617 -2.770715 3.822636 1.464093 -1.328005 4.526963 11.409694 -0.545851 -2.028853 1.866843 -0.679611 -6.199730 -7.778439 1.081334 0.000000 0.000000 0.000000 0.389628 10.042877 0.673853 -1.253462 5.297595 0.064088 -1.771833 -8.307397 -0.266568 -0.000000 0.000000 0.000000
-24.684350 106.581370 271.298215 -71.536541 -7.440494 -0.319962 -2.376764 5.286099 -0.582167 -1.048543 2.352332 -0.231355 -1.048543 2.352331 -0.231355 -0.785406 1.764652 -0.169455 2.586170 16.099481 -1.098253 5.209027 -6.192667 -2.978608 -0.065622 4.659948 10.341237 6.845728 -6.262014 73.951922 2.603203 -3.804572 0.037500 -2.563576 2.612052 -0.036812 -1.208242 4.161550 -8.396045 1.066711 -11.630999 -73.264476 -5.944232 0.841254 -2.784565 3.806063 1.452676 -1.300158 4.547201 11.431967 -0.543526 -2.049168 1.900372 -0.677293 -6.203458 -7.765134 1.085954 0.000000 -0.000000 -0.000000 0.401100 10.071788 0.674839 -1.273927 5.320230 0.059760 -1.751700 -8.299539 -0.265714 -0.000000 0.000000 -0.000000
-24.635028 106.584003 271.287825 -71.539692 -7.505331 -0.323320 -2.359466 5.270174 -0.574523 -1.040978 2.345194 -0.228241 -1.040978 2.345194 -0.228241 -0.779748 1.759290 -0.167161 2.578479 16.135022 -1.096422 5.192472 -6.127200 -2.970628 -0.112072 4.696607 10.296812 6.938925 -6.271833 73.972248 2.946380 -3.794713 0.122221 -2.526151 2.576128 -0.074002 -1.205412 4.181179 -8.424547 1.054480 -11.602077 -73.309524 -6.056588 0.834310 -2.799126 3.792431 1.444236 -1.276069 4.555629 11.456298 -0.541814 -2.056222 1.925778 -0.673774 -6.208218 -7.749846 1.084800 0.000000 -0.000000 0.000000 0.414733 10.102073 0.678076 -1.305482 5.335927 0.054534 -1.726981 -8.290936 -0.260849 -0.000000 0.000000 0.000000
